<svg id="b2367a8c-df11-4564-84ac-bfb19737ded8" data-name="Layer 1" xmlns="http://www.w3.org/2000/svg" viewBox="0 0 122.89 107.28">
  <g>
    <rect x="4.54" y="2.83" width="115.84" height="98.3" rx="12" fill="#fff"/>
    <path d="M22.48,0H100.4a22.34,22.34,0,0,1,15.82,6.6,22.68,22.68,0,0,1,6.67,16.06v62a22.65,22.65,0,0,1-6.67,16.06,22.34,22.34,0,0,1-15.82,6.6H22.48a22.34,22.34,0,0,1-15.82-6.6A22.69,22.69,0,0,1,0,84.62v-62A22.67,22.67,0,0,1,6.66,6.59,22.38,22.38,0,0,1,22.48,0ZM45.56,28.62h33v7.57L57.38,58.32h22v8.14H43.5V58.6l21-21.9H45.56V28.62Zm-41,47.6A18.9,18.9,0,0,0,9,84.51,16.41,16.41,0,0,0,21,89.91h81.4l1.15-.08a16.59,16.59,0,0,0,10.33-5.31,18.81,18.81,0,0,0,4.44-8.28V22.65a17.66,17.66,0,0,0-5.21-12.49,18,18,0,0,0-12.73-5.28H22.48A17.93,17.93,0,0,0,9.75,10.16,17.63,17.63,0,0,0,4.54,22.65V76.22Z" fill="#8e0a8b"/>
  </g>
</svg>
